<svg xmlns="http://www.w3.org/2000/svg" height="18" viewBox="0 0 24 24" width="18"><path d="M12.102 2.102A9.898 9.898 0 0 0 2.203 12a9.898 9.898 0 0 0 9.899 9.898A9.898 9.898 0 0 0 22 12a9.898 9.898 0 0 0-9.898-9.898zm0 1.979A7.919 7.919 0 0 1 20.02 12a7.919 7.919 0 0 1-7.92 7.92A7.919 7.919 0 0 1 4.183 12a7.919 7.919 0 0 1 7.92-7.92zm4.14 6.356c-1.07-.043-2.203.382-4.213 1.386-3.268 1.634-3.754 1.703-5.771.815-.79-.348-1.493-.573-1.563-.5-.07.073.06.842.287 1.708.542 2.073 2.536 4.3 4.51 5.037 1.926.718 2.734.753 4.649.2 2.667-.77 4.63-3.044 5.265-6.106.263-1.267.187-1.399-1.125-1.977-.775-.341-1.396-.536-2.039-.563z" fill="#333"/></svg>